<?xml version="1.0" encoding="utf-8"?>
<!-- Generator: Adobe Illustrator 19.0.0, SVG Export Plug-In . SVG Version: 6.00 Build 0)  -->
<svg version="1.1" id="Layer_1" xmlns="http://www.w3.org/2000/svg" xmlns:xlink="http://www.w3.org/1999/xlink" x="0px" y="0px"
	 viewBox="0 0 500 500" style="enable-background:new 0 0 500 500;" xml:space="preserve">
<style type="text/css">
	.st0{fill:#EE3534;}
</style>
<g id="XMLID_1_">
	<path id="XMLID_11_" class="st0" d="M91.9,277.8c7.2,0,11.7-3.7,11.7-8.5c0-7.2-7.9-9.3-18.7-14.8c-10.6-5.4-16.2-13.2-16.2-22.3
		c0-13,10.5-22.3,28.2-22.3c6.6,0,12.7,1.2,19.2,3.6v12.9c-6.5-3.3-11.7-5.2-16-5.2c-6.1,0-10.1,3.4-10.1,7.5
		c0,6.3,8.2,8.6,21.4,15.9c8.8,4.9,12.9,11.5,12.9,20.8c0,14.4-11.9,24.3-30.2,24.3c-7.6,0-15-1.5-22.8-4.1l-4-16.3
		C76.4,274.8,84,277.8,91.9,277.8 M158.3,242.3c-4.5,0-7.4,3-7.6,8.5h14.8C165.5,245.1,162.9,242.3,158.3,242.3 M150.2,261
		c0,0.7-0.1,1.4-0.1,2c0,9.9,6.5,15.7,17,15.7c5.2,0,11.4-2.2,19.3-5.9l-4.2,13.4c-6.8,2.3-13.3,3.9-20.6,3.9
		c-20.7,0-32.8-11.7-32.8-29c0-17.3,12.7-29.6,30-29.6c15.4,0,26.8,10.9,26.8,28v1.5L150.2,261L150.2,261z M192.8,278.2V244
		c0-4.5-0.9-7.6-3.9-10.4h5.3c6,0,12.1-0.2,18.5-1.3l0.5,5.7c4.6-3.7,9-5.5,14.2-5.5c12.1,0,20,7.7,20,20.3v25.4
		c0,4.5,0.9,7.5,3.9,10.3h-28.2c3-2.8,3.9-5.8,3.9-10.3v-17.7c0-10.7-1.4-16.4-7.3-16.4c-6.1,0-6.6,5.7-6.6,16.4v17.7
		c0,4.5,0.9,7.5,3.9,10.3h-28.2C191.9,285.7,192.8,282.7,192.8,278.2 M283.1,242.3c-4.5,0-7.4,3-7.6,8.5h14.8
		C290.3,245.1,287.7,242.3,283.1,242.3 M275,261c0,0.7-0.1,1.4-0.1,2c0,9.9,6.5,15.7,17,15.7c5.2,0,11.4-2.2,19.3-5.9l-4.2,13.4
		c-6.8,2.3-13.3,3.9-20.6,3.9c-20.7,0-32.8-11.7-32.8-29c0-17.3,12.7-29.6,30-29.6c15.4,0,26.8,10.9,26.8,28v1.5L275,261L275,261z
		 M366.1,286.3c-6,2.7-11.9,3.8-18.1,3.8c-19.3,0-31.5-12.2-31.5-28.5c0-17.2,13.1-29.9,33.5-29.9c3.2,0,7.5,0.5,12.9,1.3v13.7
		c-4.6-2.4-8.3-3.7-11.3-3.7c-7.6,0-12.6,5.8-12.6,15.8c0,11.9,5.9,19.2,15.6,19.2c4.6,0,9.7-1.6,15.7-4.9L366.1,286.3z M392,272.2
		c0,4,2.9,6.8,8,6.8h0.9l-4.8,10.3c-3.2,0.2-5.4,0.3-6.8,0.3c-11.4,0-19.2-7.4-19.2-17.2c0-8.5,5.4-14,16.1-16.5
		c10.2-2.4,16.8-2.2,16.8-7.7c0-3.5-2.4-5.3-7.3-5.3c-4.6,0-9.5,1.1-14.7,3.2l5.4-12.4c4.4-1.3,8.5-2.1,12.9-2.1
		c9,0,15.5,1.9,19.6,6.1c4.9,5,5,11.2,5,19.2v1v12.8c0,6,2.1,7.7,8.7,8.7l-4.4,9.7c-3,0.2-5.1,0.3-6.5,0.3
		c-11.1,0-18.9-6.8-18.9-17.1v-9.7C395.5,265.5,392,267.6,392,272.2"/>
</g>
</svg>
